<mxfile host="65bd71144e">
    <diagram name="Page-1" id="2YBvvXClWsGukQMizWep">
        <mxGraphModel dx="1388" dy="299" grid="1" gridSize="10" guides="1" tooltips="1" connect="1" arrows="1" fold="1" page="1" pageScale="1" pageWidth="850" pageHeight="1100" background="none" math="0" shadow="0">
            <root>
                <mxCell id="0"/>
                <mxCell id="1" parent="0"/>
                <mxCell id="aM9ryv3xv72pqoxQDRHE-1" value="&lt;span style=&quot;font-size: 11px; background-color: rgb(0, 0, 0);&quot;&gt;FTP_Service&lt;/span&gt;" style="shape=umlLifeline;perimeter=lifelinePerimeter;whiteSpace=wrap;html=1;container=0;dropTarget=0;collapsible=0;recursiveResize=0;outlineConnect=0;portConstraint=eastwest;newEdgeStyle={&quot;edgeStyle&quot;:&quot;elbowEdgeStyle&quot;,&quot;elbow&quot;:&quot;vertical&quot;,&quot;curved&quot;:0,&quot;rounded&quot;:0};" parent="1" vertex="1">
                    <mxGeometry x="-70" y="40" width="100" height="400" as="geometry"/>
                </mxCell>
                <mxCell id="aM9ryv3xv72pqoxQDRHE-2" value="" style="html=1;points=[];perimeter=orthogonalPerimeter;outlineConnect=0;targetShapes=umlLifeline;portConstraint=eastwest;newEdgeStyle={&quot;edgeStyle&quot;:&quot;elbowEdgeStyle&quot;,&quot;elbow&quot;:&quot;vertical&quot;,&quot;curved&quot;:0,&quot;rounded&quot;:0};" parent="aM9ryv3xv72pqoxQDRHE-1" vertex="1">
                    <mxGeometry x="45" y="50" width="10" height="240" as="geometry"/>
                </mxCell>
                <mxCell id="aM9ryv3xv72pqoxQDRHE-4" value="" style="html=1;points=[];perimeter=orthogonalPerimeter;outlineConnect=0;targetShapes=umlLifeline;portConstraint=eastwest;newEdgeStyle={&quot;edgeStyle&quot;:&quot;elbowEdgeStyle&quot;,&quot;elbow&quot;:&quot;vertical&quot;,&quot;curved&quot;:0,&quot;rounded&quot;:0};" parent="aM9ryv3xv72pqoxQDRHE-1" vertex="1">
                    <mxGeometry x="45" y="125" width="10" height="80" as="geometry"/>
                </mxCell>
                <mxCell id="aM9ryv3xv72pqoxQDRHE-5" value="&lt;span style=&quot;font-size: 11px; background-color: rgb(0, 0, 0);&quot;&gt;&lt;font style=&quot;&quot; color=&quot;#ffffff&quot;&gt;Data_Service&lt;/font&gt;&lt;/span&gt;" style="shape=umlLifeline;perimeter=lifelinePerimeter;whiteSpace=wrap;html=1;container=0;dropTarget=0;collapsible=0;recursiveResize=0;outlineConnect=0;portConstraint=eastwest;newEdgeStyle={&quot;edgeStyle&quot;:&quot;elbowEdgeStyle&quot;,&quot;elbow&quot;:&quot;vertical&quot;,&quot;curved&quot;:0,&quot;rounded&quot;:0};" parent="1" vertex="1">
                    <mxGeometry x="220" y="40" width="100" height="400" as="geometry"/>
                </mxCell>
                <mxCell id="aM9ryv3xv72pqoxQDRHE-6" value="" style="html=1;points=[];perimeter=orthogonalPerimeter;outlineConnect=0;targetShapes=umlLifeline;portConstraint=eastwest;newEdgeStyle={&quot;edgeStyle&quot;:&quot;elbowEdgeStyle&quot;,&quot;elbow&quot;:&quot;vertical&quot;,&quot;curved&quot;:0,&quot;rounded&quot;:0};" parent="aM9ryv3xv72pqoxQDRHE-5" vertex="1">
                    <mxGeometry x="45" y="80" width="10" height="180" as="geometry"/>
                </mxCell>
                <mxCell id="aM9ryv3xv72pqoxQDRHE-7" value="해당 파일 파싱해서 DB에 저장 요청" style="html=1;verticalAlign=bottom;endArrow=block;edgeStyle=elbowEdgeStyle;elbow=vertical;curved=0;rounded=0;" parent="1" source="aM9ryv3xv72pqoxQDRHE-2" target="aM9ryv3xv72pqoxQDRHE-6" edge="1">
                    <mxGeometry x="0.0024" relative="1" as="geometry">
                        <mxPoint x="195" y="130" as="sourcePoint"/>
                        <Array as="points">
                            <mxPoint x="180" y="120"/>
                        </Array>
                        <mxPoint as="offset"/>
                    </mxGeometry>
                </mxCell>
                <mxCell id="aM9ryv3xv72pqoxQDRHE-8" value="DB 데이터 저장 성공" style="html=1;verticalAlign=bottom;endArrow=open;dashed=1;endSize=8;edgeStyle=elbowEdgeStyle;elbow=vertical;curved=0;rounded=0;" parent="1" source="aM9ryv3xv72pqoxQDRHE-6" edge="1">
                    <mxGeometry relative="1" as="geometry">
                        <mxPoint x="-20" y="300" as="targetPoint"/>
                        <Array as="points">
                            <mxPoint x="185" y="300"/>
                        </Array>
                        <mxPoint x="260" y="300" as="sourcePoint"/>
                    </mxGeometry>
                </mxCell>
                <mxCell id="sEewJQfzpCtiCOHAZj46-5" value="해당 파싱 내용 DB에 저장" style="html=1;verticalAlign=bottom;endArrow=block;edgeStyle=elbowEdgeStyle;elbow=vertical;curved=0;rounded=0;" parent="1" source="aM9ryv3xv72pqoxQDRHE-5" target="sEewJQfzpCtiCOHAZj46-7" edge="1">
                    <mxGeometry x="0.0024" relative="1" as="geometry">
                        <mxPoint x="290" y="140" as="sourcePoint"/>
                        <Array as="points">
                            <mxPoint x="485" y="140"/>
                        </Array>
                        <mxPoint x="570" y="140" as="targetPoint"/>
                        <mxPoint as="offset"/>
                    </mxGeometry>
                </mxCell>
                <mxCell id="sEewJQfzpCtiCOHAZj46-6" value="&lt;span style=&quot;font-size: 11px; background-color: rgb(0, 0, 0);&quot;&gt;Database&lt;/span&gt;" style="shape=umlLifeline;perimeter=lifelinePerimeter;whiteSpace=wrap;html=1;container=0;dropTarget=0;collapsible=0;recursiveResize=0;outlineConnect=0;portConstraint=eastwest;newEdgeStyle={&quot;edgeStyle&quot;:&quot;elbowEdgeStyle&quot;,&quot;elbow&quot;:&quot;vertical&quot;,&quot;curved&quot;:0,&quot;rounded&quot;:0};" parent="1" vertex="1">
                    <mxGeometry x="530" y="40" width="100" height="400" as="geometry"/>
                </mxCell>
                <mxCell id="sEewJQfzpCtiCOHAZj46-7" value="" style="html=1;points=[];perimeter=orthogonalPerimeter;outlineConnect=0;targetShapes=umlLifeline;portConstraint=eastwest;newEdgeStyle={&quot;edgeStyle&quot;:&quot;elbowEdgeStyle&quot;,&quot;elbow&quot;:&quot;vertical&quot;,&quot;curved&quot;:0,&quot;rounded&quot;:0};" parent="sEewJQfzpCtiCOHAZj46-6" vertex="1">
                    <mxGeometry x="45" y="100" width="10" height="140" as="geometry"/>
                </mxCell>
                <mxCell id="sEewJQfzpCtiCOHAZj46-8" value="DB에 성공적으로 파싱 내용 적재" style="html=1;verticalAlign=bottom;endArrow=open;dashed=1;endSize=8;edgeStyle=elbowEdgeStyle;elbow=vertical;curved=0;rounded=0;" parent="1" edge="1">
                    <mxGeometry relative="1" as="geometry">
                        <mxPoint x="275" y="280" as="targetPoint"/>
                        <Array as="points">
                            <mxPoint x="485" y="280"/>
                        </Array>
                        <mxPoint x="575" y="280" as="sourcePoint"/>
                    </mxGeometry>
                </mxCell>
                <mxCell id="aM9ryv3xv72pqoxQDRHE-3" value="외부 FTP 서버 통해서 파일 가져옴" style="html=1;verticalAlign=bottom;startArrow=oval;endArrow=block;startSize=8;edgeStyle=elbowEdgeStyle;elbow=vertical;curved=0;rounded=0;" parent="1" target="aM9ryv3xv72pqoxQDRHE-2" edge="1">
                    <mxGeometry relative="1" as="geometry">
                        <mxPoint x="-240" y="50" as="sourcePoint"/>
                        <mxPoint x="-90" y="149.99999999999994" as="targetPoint"/>
                        <Array as="points">
                            <mxPoint x="-290" y="140"/>
                        </Array>
                    </mxGeometry>
                </mxCell>
                <mxCell id="sEewJQfzpCtiCOHAZj46-13" value="" style="rounded=0;whiteSpace=wrap;html=1;fillColor=none;" parent="1" vertex="1">
                    <mxGeometry x="-90" y="90" width="700" height="250" as="geometry"/>
                </mxCell>
                <mxCell id="sEewJQfzpCtiCOHAZj46-15" value="Loop" style="ellipse;whiteSpace=wrap;html=1;fillColor=none;" parent="1" vertex="1">
                    <mxGeometry x="-90" y="90" width="30" height="30" as="geometry"/>
                </mxCell>
                <mxCell id="sEewJQfzpCtiCOHAZj46-21" value="" style="shape=umlLifeline;perimeter=lifelinePerimeter;whiteSpace=wrap;html=1;container=1;dropTarget=0;collapsible=0;recursiveResize=0;outlineConnect=0;portConstraint=eastwest;newEdgeStyle={&quot;curved&quot;:0,&quot;rounded&quot;:0};participant=umlActor;" parent="1" vertex="1">
                    <mxGeometry x="100" y="36" width="20" height="400" as="geometry"/>
                </mxCell>
                <mxCell id="sEewJQfzpCtiCOHAZj46-22" value="&lt;span style=&quot;background-color: rgb(0, 0, 0);&quot;&gt;사용자&lt;/span&gt;" style="text;align=center;fontStyle=1;verticalAlign=middle;spacingLeft=3;spacingRight=3;strokeColor=none;rotatable=0;points=[[0,0.5],[1,0.5]];portConstraint=eastwest;html=1;" parent="1" vertex="1">
                    <mxGeometry x="70" y="10" width="80" height="26" as="geometry"/>
                </mxCell>
                <mxCell id="sEewJQfzpCtiCOHAZj46-25" value="해당 마스크맵, 디팩 정보 요청" style="html=1;verticalAlign=bottom;endArrow=block;curved=0;rounded=0;" parent="1" edge="1">
                    <mxGeometry width="80" relative="1" as="geometry">
                        <mxPoint x="110.02380952380963" y="160" as="sourcePoint"/>
                        <mxPoint x="269.5" y="160" as="targetPoint"/>
                        <Array as="points">
                            <mxPoint x="170" y="160"/>
                        </Array>
                    </mxGeometry>
                </mxCell>
                <mxCell id="sEewJQfzpCtiCOHAZj46-26" value="마스크맵, 디팩 정보 응답" style="html=1;verticalAlign=bottom;endArrow=open;dashed=1;endSize=8;curved=0;rounded=0;" parent="1" edge="1">
                    <mxGeometry x="0.0001" relative="1" as="geometry">
                        <mxPoint x="270" y="270" as="sourcePoint"/>
                        <mxPoint x="110.02380952380963" y="270" as="targetPoint"/>
                        <mxPoint as="offset"/>
                    </mxGeometry>
                </mxCell>
                <mxCell id="sEewJQfzpCtiCOHAZj46-27" value="마스크맵, 디팩 정보 조회" style="html=1;verticalAlign=bottom;endArrow=block;curved=0;rounded=0;" parent="1" edge="1">
                    <mxGeometry width="80" relative="1" as="geometry">
                        <mxPoint x="273.00380952380965" y="190.0000000000001" as="sourcePoint"/>
                        <mxPoint x="577.98" y="190.0000000000001" as="targetPoint"/>
                    </mxGeometry>
                </mxCell>
                <mxCell id="sEewJQfzpCtiCOHAZj46-28" value="마스크맵, 디팩 정보" style="html=1;verticalAlign=bottom;endArrow=open;dashed=1;endSize=8;curved=0;rounded=0;" parent="1" source="sEewJQfzpCtiCOHAZj46-6" target="aM9ryv3xv72pqoxQDRHE-5" edge="1">
                    <mxGeometry relative="1" as="geometry">
                        <mxPoint x="465" y="230" as="sourcePoint"/>
                        <mxPoint x="385" y="230" as="targetPoint"/>
                    </mxGeometry>
                </mxCell>
            </root>
        </mxGraphModel>
    </diagram>
</mxfile>